<?xml version="1.0" encoding="iso-8859-1"?>
<!DOCTYPE svg PUBLIC "-//W3C//DTD SVG 1.1//EN" "http://www.w3.org/Graphics/SVG/1.1/DTD/svg11.dtd">
<svg 
 version="1.1" xmlns="http://www.w3.org/2000/svg" xmlns:xlink="http://www.w3.org/1999/xlink" x="0px" y="0px" width="512px"
	 height="512px" viewBox="0 0 512 512" style="enable-background:new 0 0 512 512;" xml:space="preserve"
><g id="afcae5a789ccd549f9c6e2a2f8074817"><g></g><path style="display: inline; fill:#555555;" d="M255.713,511.5c-3.385,0-6.583-1.54-8.692-4.191l-92.479-116.164
		c-2.656-3.337-3.168-7.897-1.315-11.742c1.853-3.841,5.741-6.284,10.006-6.284h48.696v-73.325h-73.326v48.687
		c0,4.266-2.443,8.154-6.286,10.007c-3.838,1.845-8.407,1.346-11.742-1.314L4.402,264.691c-2.647-2.108-4.189-5.307-4.189-8.691
		s1.542-6.583,4.189-8.692l116.173-92.479c3.335-2.654,7.904-3.172,11.742-1.315c3.842,1.853,6.286,5.741,6.286,10.006v48.692
		h73.326v-73.331h-48.696c-4.266,0-8.153-2.443-10.006-6.286c-1.853-3.842-1.341-8.405,1.315-11.742L247.021,4.689
		c2.109-2.647,5.307-4.189,8.692-4.189s6.583,1.542,8.691,4.189l91.742,115.238c2.005,2.009,3.242,4.782,3.242,7.845
		c0,6.136-4.974,11.109-11.109,11.109c-0.021-0.004-0.057-0.002-0.087,0h-48.687v73.331h73.325V163.52
		c0-4.266,2.443-8.153,6.284-10.006c3.84-1.855,8.4-1.343,11.742,1.315l116.164,92.479c2.651,2.109,4.191,5.307,4.191,8.692
		s-1.54,6.583-4.191,8.691l-116.164,92.48c-3.342,2.66-7.902,3.159-11.742,1.314c-3.841-1.853-6.284-5.741-6.284-10.007v-48.687
		h-73.325v73.325h48.687c4.266,0,8.154,2.443,10.007,6.284c1.853,3.845,1.341,8.405-1.314,11.742l-92.48,116.164
		C262.296,509.96,259.098,511.5,255.713,511.5z M186.277,395.336l69.436,87.221l69.438-87.221h-36.755
		c-6.136,0-11.108-4.973-11.108-11.108v-95.544c0-6.136,4.973-11.108,11.108-11.108h95.544c6.136,0,11.108,4.973,11.108,11.108
		v36.755L482.27,256l-87.221-69.436v36.756c0,6.136-4.973,11.109-11.108,11.109h-95.544c-6.136,0-11.108-4.973-11.108-11.109
		v-95.548c0-6.136,4.973-11.108,11.108-11.108h36.755l-69.438-87.221l-69.436,87.221h36.761c6.136,0,11.109,4.973,11.109,11.108
		v95.548c0,6.136-4.973,11.109-11.109,11.109h-95.543c-6.136,0-11.108-4.973-11.108-11.109v-36.758L29.158,256l87.228,69.438
		v-36.755c0-6.136,4.973-11.108,11.108-11.108h95.543c6.136,0,11.109,4.973,11.109,11.108v95.544
		c0,6.136-4.973,11.108-11.109,11.108H186.277z"></path></g></svg>