<?xml version="1.0" encoding="iso-8859-1"?>
<!DOCTYPE svg PUBLIC "-//W3C//DTD SVG 1.1//EN" "http://www.w3.org/Graphics/SVG/1.1/DTD/svg11.dtd">
<svg 
 version="1.1" xmlns="http://www.w3.org/2000/svg" xmlns:xlink="http://www.w3.org/1999/xlink" x="0px" y="0px" width="512px"
	 height="512px" viewBox="0 0 512 512" style="enable-background:new 0 0 512 512;" xml:space="preserve"
><g id="afcae5a789ccd549f9c6e2a2f80d3600"><g></g><g fill="#555555"><path style="display: inline;" d="M256,0.5C114.893,0.5,0.5,114.893,0.5,256S114.893,511.5,256,511.5S511.5,397.107,511.5,256
		S397.107,0.5,256,0.5z M226.766,171.719c-37.734,0-56.602,35.868-56.602,107.611h56.602v115.064H112.319V279.33
		c0-48.93,9.644-88.12,28.922-117.567c19.283-29.438,47.79-44.159,85.524-44.159V171.719z M399.682,171.719
		c-37.318,0-55.974,35.868-55.974,107.611h55.974v115.064H285.234V279.33c0-48.93,9.648-88.12,28.923-117.567
		c19.288-29.438,47.79-44.159,85.524-44.159V171.719z"></path></g></g></svg>